# xmcd CD database file
#
# Track frame offsets:
#	150
#	51116
#	91474
#	148721
#	173246
#	260328
#
# Disc length: 4002 seconds
#
# Revision: 0
# Processed by: cddbd v1.5.2PL0 Copyright (c) Steve Scherf et al.
# Submitted via: CDex 1.70beta3
#
DISCID=4f0fa006
DTITLE=Fuwa Daisuke - Chitei Resords Works - Disc 1
DYEAR=1900
DGENRE=Jazz
TTITLE0=Duel in the Underground
TTITLE1=Night
TTITLE2=Tabishibire Song
TTITLE3=Hikouki
TTITLE4=Whereabouts Unknown
TTITLE5=Orfe Negro
EXTD=
EXTT0=
EXTT1=
EXTT2=
EXTT3=
EXTT4=
EXTT5=
PLAYORDER=
